<svg xmlns="http://www.w3.org/2000/svg" viewBox="0 0 1000 1250" width="1000" height="1250" role="img" aria-label="dress in sand">
  <defs>
  <linearGradient id="dresssand-fill" x1="0.15" y1="0" x2="0.85" y2="1">
    <stop offset="0%" stop-color="#ded6c9"/>
    <stop offset="42%" stop-color="#c6bcab"/>
    <stop offset="100%" stop-color="#a89d8a"/>
  </linearGradient>
  <linearGradient id="dresssand-sleeve" x1="0" y1="0" x2="1" y2="0.6">
    <stop offset="0%" stop-color="#c6bcab"/>
    <stop offset="100%" stop-color="#a89d8a"/>
  </linearGradient>
  <linearGradient id="dresssand-rib" x1="0" y1="0" x2="0" y2="1">
    <stop offset="0%" stop-color="#a89d8a"/>
    <stop offset="100%" stop-color="#c6bcab"/>
  </linearGradient>
  <filter id="dresssand-grain" x="0" y="0" width="100%" height="100%">
    <feTurbulence type="fractalNoise" baseFrequency="1.1" numOctaves="3" stitchTiles="stitch"/>
    <feColorMatrix type="saturate" values="0"/>
  </filter>
  <filter id="dresssand-shadow" x="-40%" y="-40%" width="180%" height="180%">
    <feGaussianBlur stdDeviation="26"/>
  </filter>
  </defs>
  <ellipse cx="500" cy="1105" rx="250" ry="34" fill="#000" opacity="0.22" filter="url(#dresssand-shadow)"/>
  <g filter="none">
      <path d="M394 268 C 420 300 580 300 606 268 L 640 300
               C 676 340 696 392 702 452 L 744 1052 C 746 1074 734 1086 712 1086
               L 288 1086 C 266 1086 254 1074 256 1052 L 298 452
               C 304 392 324 340 360 300 Z" fill="url(#dresssand-fill)"/>
  </g>
  <g stroke="none">
      <path d="M394 268 C 420 300 580 300 606 268 C 584 250 416 250 394 268 Z" fill="#a89d8a" fill-opacity="0.3"/>
      <path d="M360 300 C 352 250 348 232 344 214" stroke="#ded6c9" stroke-opacity="0.5" stroke-width="6" fill="none" stroke-linecap="round"/>
      <path d="M640 300 C 648 250 652 232 656 214" stroke="#ded6c9" stroke-opacity="0.5" stroke-width="6" fill="none" stroke-linecap="round"/>
      <path d="M420 340 C 400 600 388 860 396 1070" fill="none" stroke="#a89d8a" stroke-opacity="0.18" stroke-width="2.5" stroke-linecap="round"/>
      <path d="M580 340 C 600 600 612 860 604 1070" fill="none" stroke="#a89d8a" stroke-opacity="0.18" stroke-width="2.5" stroke-linecap="round"/>
      <path d="M500 320 L 500 1080" fill="none" stroke="#a89d8a" stroke-opacity="0.12" stroke-width="2.5" stroke-linecap="round"/>
      <path d="M262 1046 L 738 1046" fill="none" stroke="#ded6c9" stroke-opacity="0.35" stroke-width="1.6" stroke-dasharray="7 7" stroke-linecap="round"/></g>
  <g fill="none" stroke="#4c4638" stroke-opacity="0.24" stroke-width="2">
      <path d="M394 268 C 420 300 580 300 606 268 L 640 300
               C 676 340 696 392 702 452 L 744 1052 C 746 1074 734 1086 712 1086
               L 288 1086 C 266 1086 254 1074 256 1052 L 298 452
               C 304 392 324 340 360 300 Z" fill="none"/>
  </g>
</svg>