<svg xmlns="http://www.w3.org/2000/svg" viewBox="250 400 500 625" width="1000" height="1250" role="img" aria-label="bomber in slate">
  <defs>
  <linearGradient id="bomberslateb-fill" x1="0.15" y1="0" x2="0.85" y2="1">
    <stop offset="0%" stop-color="#646c78"/>
    <stop offset="42%" stop-color="#464d57"/>
    <stop offset="100%" stop-color="#2f353d"/>
  </linearGradient>
  <linearGradient id="bomberslateb-sleeve" x1="0" y1="0" x2="1" y2="0.6">
    <stop offset="0%" stop-color="#464d57"/>
    <stop offset="100%" stop-color="#2f353d"/>
  </linearGradient>
  <linearGradient id="bomberslateb-rib" x1="0" y1="0" x2="0" y2="1">
    <stop offset="0%" stop-color="#2f353d"/>
    <stop offset="100%" stop-color="#464d57"/>
  </linearGradient>
  <filter id="bomberslateb-grain" x="0" y="0" width="100%" height="100%">
    <feTurbulence type="fractalNoise" baseFrequency="1.1" numOctaves="3" stitchTiles="stitch"/>
    <feColorMatrix type="saturate" values="0"/>
  </filter>
  <filter id="bomberslateb-shadow" x="-40%" y="-40%" width="180%" height="180%">
    <feGaussianBlur stdDeviation="26"/>
  </filter>
  </defs>
  <ellipse cx="500" cy="1105" rx="250" ry="34" fill="#000" opacity="0.16" filter="url(#bomberslateb-shadow)"/>
  <g filter="none">
      <path d="M500 276 C 444 276 402 290 388 316 L 262 362 C 214 382 186 410 176 448
               L 130 660 C 124 686 138 704 166 708 L 250 722 C 276 726 292 714 296 690
               L 316 580 L 316 906 C 316 924 324 934 342 934 L 658 934
               C 676 934 684 924 684 906 L 684 580 L 704 690 C 708 714 724 726 750 722
               L 834 708 C 862 704 876 686 870 660 L 824 448 C 814 410 786 382 738 362
               L 612 316 C 598 290 556 276 500 276 Z" fill="url(#bomberslateb-fill)"/>
  </g>
  <g stroke="none">
      <path d="M388 316 C 420 288 580 288 612 316 L 604 262 C 578 244 422 244 396 262 Z"
            fill="url(#bomberslateb-rib)"/>
      <path d="M316 872 L 684 872 L 684 906 C 684 924 676 934 658 934 L 342 934
               C 324 934 316 924 316 906 Z" fill="url(#bomberslateb-rib)"/>
      <path d="M136 674 L 300 700 L 296 682 L 132 654 Z" fill="url(#bomberslateb-rib)"/>
      <path d="M864 674 L 700 700 L 704 682 L 868 654 Z" fill="url(#bomberslateb-rib)"/>
      <rect x="492" y="316" width="16" height="556" fill="#2f353d" fill-opacity="0.55"/>
      <rect x="497" y="316" width="6" height="556" fill="#646c78" fill-opacity="0.4"/>
      <circle cx="500" cy="640" r="13" fill="#646c78" fill-opacity="0.5"/>
      <path d="M360 470 L 440 470" fill="none" stroke="#2f353d" stroke-opacity="0.35" stroke-width="2.5" stroke-linecap="round"/>
      <path d="M330 900 L 470 900" fill="none" stroke="#646c78" stroke-opacity="0.35" stroke-width="1.6" stroke-dasharray="7 7" stroke-linecap="round"/>
      <path d="M530 900 L 670 900" fill="none" stroke="#646c78" stroke-opacity="0.35" stroke-width="1.6" stroke-dasharray="7 7" stroke-linecap="round"/></g>
  <g fill="none" stroke="#ffffff" stroke-opacity="0.12" stroke-width="2">
      <path d="M500 276 C 444 276 402 290 388 316 L 262 362 C 214 382 186 410 176 448
               L 130 660 C 124 686 138 704 166 708 L 250 722 C 276 726 292 714 296 690
               L 316 580 L 316 906 C 316 924 324 934 342 934 L 658 934
               C 676 934 684 924 684 906 L 684 580 L 704 690 C 708 714 724 726 750 722
               L 834 708 C 862 704 876 686 870 660 L 824 448 C 814 410 786 382 738 362
               L 612 316 C 598 290 556 276 500 276 Z" fill="none"/>
  </g>
</svg>